<svg xmlns="http://www.w3.org/2000/svg" width="310" height="69" viewBox="0 0 310 69"><g fill="none" fill-rule="evenodd"><path fill="#ECB62F" d="M112.6 32.6a64.9 64.9 0 01-4.4-4.7h-3.3v1.5a73 73 0 012.7 1.2 28.4 28.4 0 015.8 4.2c2.6 2.5 3 2.6 6.1 6.3l1.2.9a49 49 0 00-8.1-9.4z"/><path fill="#163860" d="M291.5 7.9c10.8 0 18.2 6 18.2 17 0 11.6-7.6 17.1-18.2 17.1-11.8 0-18.7-7.2-18.7-17.4 0-7.6 4.9-16.7 18.7-16.7zm-37 0c1.2 0 6 .3 8.2 1 2.2.5 7.4 2.8 7.4 9.1s-5.9 8-5.9 8l.1.1.1.2 2 3.2.4.5 2 3.3c.7.9 1 1.5 2.2 1.5h2.3V42h-12.5l-8.1-14.4h-4.5v5.5c0 .9.2 1.7 1.6 1.7h2V42h-19.9v-7.2h2.2c1.5 0 1.6-1 1.6-1.7V16.9c0-1-.2-1.7-1.6-1.7H232V7.9zm-39 0V8l4 10.4.2.8.3.8a1212 1212 0 004.2 11.4c.9 2 1.3 3.4 2.7 3.4h2V42H210v-6.9h1.8c.7 0 1.9-.4 1.5-1.6l-1-3.2H203v.2l-.6 1.7v.3l-.3.9c-.3 1-.1 1.7.8 1.7h2.2V42h-15.6v-7.2h1.8a2.4 2.4 0 002.5-1.7l.5-1.3.1-.4 4.4-12 .3-.9L202.8 8zm-29.3 0v12h-7.4a8.9 8.9 0 00-8-5.2c-4.5 0-8 3.3-8 9.4 0 10.4 5.6 11.3 8 11.3 5 0 6.1-3.6 6.1-5h-4.6V24h15.9v3.5l-.1.8c0 1-.9 13.6-18.7 13.6-12.8 0-19.4-7-19.4-17.7 0-7.2 5.5-16.4 18.5-16.4 7.3 0 10.4 2.6 10.4 2.6V7.9h7.3zm-37.8 0v7.3h-2.6c-1.2 0-1.6.4-1.6 1.7v16.3c0 1.2.6 1.6 1.7 1.6h2.5V42h-20.7v-7.2h2.6c.9 0 1.6-.3 1.6-1.6V17c0-1-.2-1.7-1.6-1.7h-2.6V7.9h20.7zm-24 0v11h-8.6V17a1.8 1.8 0 00-.5-1.4 1.7 1.7 0 00-1.4-.4h-7.8v6.1h7.2V28h-7.2v5c0 1.3.6 1.9 2.3 1.9h2.7V42H89.3v-7.2h2.9c.4 0 .7-.2 1-.4.3-.3.4-.7.4-1V17c0-1-.2-1.8-1.5-1.8h-2.8V7.9h35zM72.3 8v11h-8.6V17c0-1.1-.5-1.9-2.2-1.9H54v6.2h8.1V28h-8v6.8h7.8a1.7 1.7 0 001.8-1.8V31h8.6v11H38v-7.2H40c1 0 1.6-.5 1.6-1.5V17c0-1.1-.1-1.8-1.5-1.8h-2V7.9h34.3zM20.8 8v7.3h-2.5c-1.3 0-1.6.5-1.6 1.7v16.3a1.6 1.6 0 001.6 1.5h6c.5 0 1-.1 1.3-.4.3-.4.5-.8.5-1.3v-5.8h8.3V42H0v-7.2h2.4c1.2 0 1.7-.4 1.7-1.6V16.9c0-1-.1-1.7-1.5-1.7H0V7.9h20.8zm270.8 6.7c-3.8 0-6 3.6-6 9.5 0 9.4 3.2 11.3 6.3 11.3 3 0 5.7-2.3 5.7-10.7 0-7.7-2.5-10.1-6-10.1zm-83.8 1l-3.3 10h6.4l-3-10zm45.3-.9h-5v7h4.6c2.7 0 4.4-1.1 4.4-3.4 0-3-2.6-3.6-4-3.6z"/><path fill="#ECB62F" d="M91.7 8.4c-.2 0 .1.7-.1.7C84.8 7 79 0 79 0c.1 2.5.6 5 1.3 7.4a3.7 3.7 0 01-1.5-1.3c1.8 8 7 10.9 7 10.9-1-.2-2-.4-2.9-.8 2.2 2.6 9.1 6.4 9.1 6.4l-3-.2a34.7 34.7 0 0011.4 5.6V17.5s-2.5-6.4-8.7-9z"/><path fill="#163860" fill-rule="nonzero" d="M11.2 64l.1-3.8h-1l-.2 1.3c-.1.5-.3.8-.5 1-.2.3-.5.5-1 .5H5.6v-9.2-.6l.3-.3a.6.6 0 01.2-.1h1.1v-1H1.2v1h1.1s.2 0 .3.2l.1.3.1.6v8.7a.8.8 0 01-.3.3.6.6 0 01-.2.2H1.2v1h10zm4.3.2l.8-.1a2.2 2.2 0 001.2-.7l.5-.6h.2l.3 1.2h3.2v-.9h-.5a.6.6 0 01-.4-.3.9.9 0 01-.1-.3 2.6 2.6 0 010-.6v-4.3c0-.6-.2-1-.3-1.4a2 2 0 00-.7-.9l-1.1-.5a9.1 9.1 0 00-3 0c-.3 0-.7.1-1 .3a2 2 0 00-.8.5 1.2 1.2 0 00-.3.8c0 .4.2.7.6.9.4.2 1 .2 1.7.2v-.7l.3-.6a1 1 0 01.3-.4h.6a1 1 0 01.5 0l.4.4v.7l.1.7v1h-1.4a5.3 5.3 0 00-2.8.7c-.7.5-1 1.2-1 2.1 0 .5 0 .9.2 1.2a2.3 2.3 0 001.4 1.4l1.1.2zm1-1.3c-.4 0-.7 0-.8-.3a2 2 0 01-.2-1.1v-.8c.1-.3.2-.5.4-.6 0-.2.3-.3.5-.4l.9-.2h.7v2.2l-.4.6-.5.5-.7.1zM32 64.2c.5 0 1 0 1.5-.2a3.5 3.5 0 001-.4l.6-.6.2-.7-.1-.4a.8.8 0 00-.3-.4 2.4 2.4 0 01-1 1 3.2 3.2 0 01-1.5.4c-.7 0-1.2-.3-1.5-.9a5.5 5.5 0 01-.5-2.5v-1.8l.4-1.2.5-.6.7-.2c.2 0 .4 0 .5.2l.4.5.1.7.1.8 1-.1.8-.3.3-.5.1-.5c0-.3 0-.5-.2-.7l-.7-.6a3.7 3.7 0 00-1-.4 6.9 6.9 0 00-3.1.1c-.5.2-1 .4-1.3.8a3.8 3.8 0 00-1 1.5 7.1 7.1 0 00-.2 2.3c0 .8 0 1.6.3 2.2.2.6.5 1 .8 1.4.4.4.8.7 1.4.8.5.2 1 .3 1.7.3zm8.5 0h.8l.7-.3c.2 0 .4-.2.6-.4l.6-.7.5 1.2H47v-.9H47a3.3 3.3 0 01-.5 0 .8.8 0 01-.3-.2.7.7 0 01-.3-.3 1.6 1.6 0 010-.6V55H42v.9h.5a.8.8 0 01.7.5v4.9c0 .3-.2.6-.3.8a1.3 1.3 0 01-1.2.7 1 1 0 01-.6-.1 1.2 1.2 0 01-.4-.5l-.2-.8a7.1 7.1 0 010-1V55h-3.8v.9h.5l.4.2.2.4V60.8c0 1.2.3 2 .8 2.5.4.6 1.1.9 2 .9zm12.9-.2v-.9H52.9a1 1 0 01-.7-.5 1.2 1.2 0 01-.2-.6V51h-4v.9H48.6c.2 0 .3 0 .4.2a.9.9 0 01.3.3l.2.5v9c0 .2 0 .4-.2.6a1 1 0 01-.3.3 1 1 0 01-.4.2H48v1h5.4zm4.6.2a7.7 7.7 0 002-.3l.4-.2v-1a6 6 0 01-1.2.1c-.4 0-.7-.1-.9-.4-.2-.2-.2-.6-.2-1V56h2.1V55h-2.1v-2.1h-1.5a3.5 3.5 0 01-.7 1.7 2.3 2.3 0 01-1.7.7v.8h1.3v5.5l.1 1.2.5.9.8.4 1 .2zm7.3 0h.8l.7-.3c.2 0 .4-.2.6-.4l.6-.7.4 1.2H72v-.9h-.1a3.3 3.3 0 01-.5 0 .8.8 0 01-.3-.2.7.7 0 01-.2-.3 1.6 1.6 0 01-.1-.6V55h-3.9v.9h.5a.8.8 0 01.7.5v4.9c0 .3-.2.6-.3.8-.1.3-.3.4-.5.5-.2.2-.4.2-.7.2l-.6-.1a1.2 1.2 0 01-.4-.5l-.2-.8a7.1 7.1 0 010-1V55h-3.8v.9h.5l.4.2.2.4V60.8c0 1.2.3 2 .8 2.5.4.6 1.1.9 2 .9zm13.2-.2v-.9H78a2.8 2.8 0 01-.4 0 .9.9 0 01-.4-.2.8.8 0 01-.3-.3V59a8 8 0 010-1l.2-.6.2-.6.4-.3.5-.2h.4l.3.4.1.4v.6c.7 0 1.3-.1 1.6-.4.4-.3.6-.7.6-1.2s-.2-.8-.5-1c-.3-.3-.8-.4-1.5-.4h-.9a1.9 1.9 0 00-1 .8l-.5.7-.4-1.3H73v.9h.5l.4.2.3.3V62.5a.8.8 0 01-.7.5l-.5.1h-.1v.9h5.7zm8.3.2a6.5 6.5 0 001.4-.2 4 4 0 001-.4c.4-.2.6-.3.7-.6l.2-.7c0-.3-.1-.6-.5-.8a2.6 2.6 0 01-.9 1 2.8 2.8 0 01-1.5.4c-.3 0-.6 0-.9-.2-.3-.1-.5-.3-.7-.6l-.4-1c-.2-.4-.2-.9-.2-1.5h5.5v-.8c0-.7 0-1.3-.2-1.8a3.3 3.3 0 00-2-2 5 5 0 00-1.7-.3 5 5 0 00-1.8.3c-.6.2-1 .5-1.4.9a4 4 0 00-.8 1.5 7 7 0 00-.2 2c0 .8 0 1.5.2 2a3.6 3.6 0 002.3 2.4c.5.3 1.1.4 1.9.4zm1.1-5.7h-2.9c0-.9.2-1.5.5-2 .2-.5.6-.7 1.1-.7a1 1 0 01.6.2c.2 0 .3.3.4.5l.3.9v1.1zm12.4 5.7l1-.1a2.6 2.6 0 001.2-.8l.4-.6h.2l.5 1.3h3.3v-.9h-.1a3.3 3.3 0 01-.5 0 1.2 1.2 0 01-.5-.2.9.9 0 01-.3-.4 1.4 1.4 0 01-.1-.6V51.1h-4.1v.9h.7l.4.1.3.4.1.5v1a6.3 6.3 0 000 .8v.4l.1.8a2.9 2.9 0 00-1-1 3 3 0 00-1.6-.3c-.6 0-1 0-1.5.3-.4.2-.8.4-1 .8a4 4 0 00-.7 1.5c-.2.6-.2 1.3-.2 2.2 0 .8 0 1.5.2 2 .1.7.4 1.2.7 1.5.3.4.6.7 1 .9l1.5.3zm.7-1.3c-.5 0-1-.3-1.2-.9a7 7 0 01-.3-2.6 9.7 9.7 0 01.3-2.6l.5-.6c.2-.2.5-.3.7-.3.4 0 .7.1.9.3.2.1.4.3.5.6.2.3.3.7.3 1.1a12.3 12.3 0 010 3c0 .5-.1.9-.3 1.1l-.5.7-.9.2zm11.5 1.3a6.5 6.5 0 001.5-.2c.4 0 .8-.2 1-.4l.7-.6.2-.7c0-.3-.2-.6-.5-.8a2.6 2.6 0 01-1 1 2.8 2.8 0 01-1.4.4c-.4 0-.7 0-1-.2l-.6-.6-.5-1-.2-1.5h5.6v-.8c0-.7-.1-1.3-.3-1.8a3.3 3.3 0 00-2-2 5 5 0 00-1.7-.3 5 5 0 00-1.8.3c-.5.2-1 .5-1.3.9a4 4 0 00-.8 1.5 7 7 0 00-.3 2c0 .8.1 1.5.3 2a3.6 3.6 0 002.2 2.4c.6.3 1.2.4 1.9.4zm1.2-5.7h-3c0-.9.2-1.5.5-2s.7-.7 1.2-.7a1 1 0 01.6.2l.4.5.2.9v1.1zm13.8 5.5v-.9h-.2a3 3 0 01-.4 0 1 1 0 01-.7-.5 1.2 1.2 0 010-.6V51h-4v.9h.5c.2 0 .3 0 .4.2a.9.9 0 01.3.3l.1.5v9l-.1.6a1 1 0 01-.3.3 1 1 0 01-.4.2H122.2v1h5.4zm4 .2l.8-.1a2.2 2.2 0 001.1-.7l.6-.6h.1l.4 1.2h3.1v-.9h-.5a.6.6 0 01-.3-.3.9.9 0 01-.2-.3 2.6 2.6 0 010-.6v-4.3c0-.6-.1-1-.3-1.4a2 2 0 00-.6-.9 3 3 0 00-1.1-.5 9.1 9.1 0 00-3 0c-.4 0-.8.1-1 .3a2 2 0 00-.8.5 1.2 1.2 0 00-.3.8c0 .4.2.7.6.9.4.2 1 .2 1.7.2v-.7l.2-.6a1 1 0 01.4-.4h.5a1 1 0 01.6 0l.3.4.1.7v1.7h-1.3a5.3 5.3 0 00-2.9.7c-.6.5-1 1.2-1 2.1 0 .5.1.9.3 1.2.1.4.3.7.6.9l.8.5 1 .2zm.9-1.3c-.4 0-.6 0-.8-.3l-.2-1.1.1-.8c0-.3.2-.5.3-.6.1-.2.3-.3.6-.4l.8-.2h.8v1.3l-.1.9c-.1.2-.2.5-.4.6l-.5.5-.6.1zm16.3 1.1v-.9H148.2a1 1 0 01-.7-.5 1.2 1.2 0 01-.1-.6V51h-4v.9H144c.1 0 .3 0 .4.2a.9.9 0 01.3.3l.1.5v9l-.1.6a1 1 0 01-.3.3l-.4.2H143.4v1h5.4zm3.4-10.6a2 2 0 001-.3 1.1 1.1 0 00.5-1c0-.2 0-.4-.2-.5a1 1 0 00-.3-.4l-.4-.2a2.2 2.2 0 00-1.2 0l-.4.2a1 1 0 00-.3.4l-.2.5a1.2 1.2 0 00.5 1l.4.2h.6zM155 64v-.9h-.2a3 3 0 01-.4 0 1 1 0 01-.7-.5 1.2 1.2 0 01-.1-.6v-7.1h-4v.9H150.2c.1 0 .3 0 .4.2a.9.9 0 01.3.3v6.3a1 1 0 01-.3.3 1 1 0 01-.4.2H149.6v.9h5.4zm7.2.2c.6 0 1-.1 1.5-.3.5-.2.8-.5 1.1-.9.3-.4.5-.9.7-1.5l.2-2a8.8 8.8 0 00-.2-2.2 4 4 0 00-.7-1.5c-.3-.4-.6-.6-1-.8a3.6 3.6 0 00-1.5-.3 3 3 0 00-1.6.4 3 3 0 00-1 1 204.3 204.3 0 010-1.5V51h-4v1h.7a1 1 0 01.7.5v10a.9.9 0 01-.3.4 1 1 0 01-.4.2h-.6v.9h3.2l.5-1.3h.1l.5.6a2.6 2.6 0 001.2.8h1zm-.7-1.3c-.3 0-.6 0-.8-.2l-.6-.7a3.9 3.9 0 01-.3-1.1 12.3 12.3 0 010-3l.3-1.1.6-.7.8-.2c.6 0 1 .3 1.2.9.3.6.4 1.4.4 2.6 0 1.1-.1 2-.4 2.6-.2.6-.6.9-1.2.9zm10.4 1.3a6.5 6.5 0 001.5-.2 4 4 0 001-.4l.7-.6.2-.7c0-.3-.2-.6-.5-.8a2.6 2.6 0 01-.9 1 2.8 2.8 0 01-1.5.4c-.3 0-.7 0-1-.2l-.6-.6a3 3 0 01-.5-1l-.2-1.5h5.6v-.8c0-.7-.1-1.3-.3-1.8a3.3 3.3 0 00-2-2 5 5 0 00-1.7-.3 5 5 0 00-1.8.3c-.5.2-1 .5-1.3.9a4 4 0 00-.8 1.5 7 7 0 00-.3 2c0 .8.1 1.5.3 2a3.6 3.6 0 002.2 2.4c.6.3 1.2.4 2 .4zm1.2-5.7h-3c0-.9.2-1.5.5-2s.7-.7 1.2-.7a1 1 0 01.6.2l.4.5.2.9.1 1.1zm9.5 5.5v-.9h-.5a2.8 2.8 0 01-.5 0 .9.9 0 01-.4-.2.8.8 0 01-.2-.3l-.1-.6v-3a8 8 0 010-1l.2-.6.3-.6.3-.3.6-.2h.4l.2.4.2.4v.6c.7 0 1.2-.1 1.6-.4.4-.3.6-.7.6-1.2s-.2-.8-.5-1c-.3-.3-.8-.4-1.5-.4h-.9a1.9 1.9 0 00-1.1.8l-.4.7-.4-1.3H177v.9h.6l.4.2.2.3.1.6v5.6a.8.8 0 01-.8.5l-.5.1v.9h5.6zm7.2.2a7.7 7.7 0 002-.3l.4-.2v-1a6 6 0 01-1.2.1c-.4 0-.6-.1-.8-.4-.2-.2-.3-.6-.3-1V56h2.2V55h-2.2v-2.1h-1.4a3.5 3.5 0 01-.8 1.7 2.3 2.3 0 01-1.6.7v.8h1.2v5.5l.2 1.2c.1.4.3.7.5.9l.8.4 1 .2zm8-10.5a19 19 0 002.7-2c.3-.2.4-.4.5-.6V51h-2.6a13.2 13.2 0 01-1.3 2l-.4.5v.2h1.2zm.2 10.5a6.5 6.5 0 001.5-.2c.4 0 .7-.2 1-.4.3-.2.5-.3.6-.6.2-.2.2-.4.2-.7 0-.3-.1-.6-.4-.8a2.6 2.6 0 01-1 1 2.8 2.8 0 01-1.4.4c-.4 0-.7 0-1-.2l-.7-.6a3 3 0 01-.4-1l-.2-1.5h5.6v-.8c0-.7-.1-1.3-.3-1.8a3.3 3.3 0 00-2-2 5 5 0 00-1.7-.3 5 5 0 00-1.8.3c-.5.2-1 .5-1.3.9a4 4 0 00-.8 1.5 7.3 7.3 0 000 4 3.6 3.6 0 002.2 2.4c.5.3 1.2.4 1.9.4zm1.2-5.7h-3c0-.9.2-1.5.5-2s.7-.7 1.1-.7a1 1 0 01.7.2l.4.5.2.9v1.1zm12.4 5.7l.9-.1a2.6 2.6 0 001.2-.8l.5-.6h.1l.5 1.3h3.3v-.9a3.3 3.3 0 01-.6 0 1.2 1.2 0 01-.4-.2.9.9 0 01-.4-.4 1.4 1.4 0 010-.6V51.1h-4.2v.9h.7l.4.1c.2.1.3.2.3.4l.1.5v1a8 8 0 000 .8l.1.4v.9a2.9 2.9 0 00-1-1 3 3 0 00-1.6-.4c-.5 0-1 0-1.4.3-.5.2-.8.5-1.1.8-.3.4-.5 1-.7 1.5l-.2 2.2c0 .8 0 1.5.2 2 .2.7.4 1.2.7 1.5l1 .9c.5.2 1 .3 1.6.3zm.7-1.3c-.6 0-1-.3-1.2-.9a7 7 0 01-.4-2.6l.1-1.5c0-.4.1-.8.3-1 0-.4.3-.6.5-.7.2-.2.4-.3.7-.3.3 0 .6.1.8.3.3.1.4.3.6.6l.3 1.1a12.3 12.3 0 010 3l-.3 1.1-.6.7-.8.2zm11.4 1.3a6.5 6.5 0 001.5-.2 4 4 0 001-.4c.4-.2.6-.3.7-.6l.2-.7c0-.3-.2-.6-.5-.8a2.6 2.6 0 01-.9 1 3 3 0 01-.7.3l-.8.1c-.3 0-.6 0-1-.2l-.6-.6-.5-1-.1-1.5h5.5v-.8c0-.7 0-1.3-.2-1.8a3.3 3.3 0 00-2-2 5 5 0 00-1.8-.3 5 5 0 00-1.7.3c-.6.2-1 .5-1.4.9-.3.4-.6.9-.8 1.5-.2.6-.3 1.3-.3 2 0 .8.1 1.5.3 2a3.6 3.6 0 002.2 2.4c.6.3 1.2.4 2 .4zm1.2-5.7h-3c.1-.9.3-1.5.6-2 .2-.5.6-.7 1-.7a1 1 0 01.7.2c.2 0 .3.3.4.5l.3.9v1.1zm9.3 9.6v-1h-.3a2 2 0 01-.4 0 1 1 0 01-.4-.1 1 1 0 01-.3-.3 1.2 1.2 0 01-.1-.6v-1.2a10.9 10.9 0 00-.1-1.3V63l1 1a3 3 0 001.6.3c.5 0 1 0 1.5-.3.4-.2.7-.4 1-.8.3-.4.5-1 .7-1.5l.2-2.1c0-.8 0-1.6-.2-2.2a4 4 0 00-.7-1.4c-.3-.4-.6-.7-1-.9a3.8 3.8 0 00-2.5-.2 2.7 2.7 0 00-1.7 1.4l-.3-1.3h-3.4v.9h.6l.4.2.2.4V66.7a1 1 0 01-.3.3l-.4.1a2 2 0 01-.4 0h-.2v1h5.5zm.2-5.1c-.3 0-.6-.1-.8-.3-.3-.1-.4-.3-.6-.6a3.7 3.7 0 01-.3-1 12.3 12.3 0 010-3.1l.3-1.1.6-.7.8-.2c.6 0 1 .3 1.2.9.3.6.4 1.5.4 2.6a7 7 0 01-.4 2.6c-.2.6-.6.8-1.2.8zm9.6 1.2h.8l.7-.3c.2 0 .4-.2.6-.4l.6-.7.4 1.2h3.4v-.9h-.1a3.3 3.3 0 01-.5 0 .8.8 0 01-.3-.2.7.7 0 01-.3-.3 1.6 1.6 0 010-.6V55h-4v.9h.6a.8.8 0 01.7.5v4.9c0 .3-.2.6-.3.8-.1.3-.3.4-.5.5-.2.2-.4.2-.7.2l-.6-.1a1.2 1.2 0 01-.4-.5l-.2-.8a7.1 7.1 0 010-1V55H240v.9h.5l.4.2.2.4V60.8c0 1.2.3 2 .8 2.5.4.6 1.1.9 2 .9zm10-10.8l.6-.1.5-.2a1.1 1.1 0 00.4-1l-.1-.5a1 1 0 00-.3-.4l-.5-.2a2.2 2.2 0 00-1.1 0l-.5.2a1 1 0 00-.3.4v1.1l.3.4.5.2h.5zm2.8 10.6v-.9h-.2a3 3 0 01-.4 0 1 1 0 01-.7-.5 1.2 1.2 0 010-.6v-7.1h-4v.9h.5c.2 0 .3 0 .4.2a.9.9 0 01.3.3l.2.5V62c0 .2 0 .4-.2.6a1 1 0 01-.3.3 1 1 0 01-.4.2H251.4v.9h5.4zm4.5.2l1.5-.2 1.2-.6.7-1c.2-.3.3-.8.3-1.2a2.3 2.3 0 00-.8-1.7 3.7 3.7 0 00-.8-.6 7.7 7.7 0 00-1-.5 11.9 11.9 0 01-1.9-.8l-.4-.4a1.1 1.1 0 010-1l.3-.3.5-.2h.5c.5 0 .9.1 1.1.4.3.3.4.8.4 1.3.6 0 1 0 1.3-.3.3-.2.4-.5.4-.8l-.1-.6a1.5 1.5 0 00-.6-.5 3.1 3.1 0 00-.9-.4 5.9 5.9 0 00-1.3-.1l-1.5.1-1.2.5a2.3 2.3 0 00-1 2 2.3 2.3 0 00.7 1.9l1 .6 1.1.5a9 9 0 011.7.8l.3.4a1.2 1.2 0 010 1l-.3.3-.5.3h-.7a1.6 1.6 0 01-1.4-.5l-.4-.8v-1l-.6.1-.5.2-.4.4-.2.7.2.8.6.6 1 .4 1.7.2zM279 64v-.9h-1.4a1 1 0 01-.4 0 .6.6 0 01-.3-.3.9.9 0 01-.1-.3V51.8h-2l-1.1.9a11.2 11.2 0 01-1.5.9 5.4 5.4 0 01-1.1.4v.5a1 1 0 00.6.7h.8l.6-.4.5-.6.6-.7v9a.8.8 0 01-.2.4.6.6 0 01-.2.1 1 1 0 01-.4.1H272v1h7zm5.7.2c.7 0 1.3-.1 1.8-.3a4 4 0 001.4-.6c.4-.3.6-.7.8-1a3.3 3.3 0 00.2-2.5l-.5-.8a4.3 4.3 0 00-.9-.8l-1.3-.8 1-.5.7-.6.5-.7a3 3 0 00-.1-2.1 2.5 2.5 0 00-.7-1l-1.1-.6a5 5 0 00-1.6-.2 5.7 5.7 0 00-1.9.3c-.5.1-.9.4-1.2.7-.3.2-.5.6-.7 1a3.2 3.2 0 00.4 2.8c.3.5.9 1 1.5 1.4l-1 .6-.8.6a2.6 2.6 0 00-.7 1.8c0 .5.1.9.3 1.3.2.4.4.7.8 1 .3.3.7.5 1.2.7a5.9 5.9 0 001.9.3zm.5-7.4c-.3 0-.6-.2-.8-.4a3 3 0 01-.6-.4 1.9 1.9 0 01-.3-.6 2.9 2.9 0 010-1.6c0-.2 0-.4.2-.6a1.3 1.3 0 011-.5c.3 0 .6 0 .8.2.2 0 .3.2.5.4l.3.6v1.5l-.2.6-.4.5-.5.4zm-.4 6.4a1.8 1.8 0 01-1.4-.6l-.4-.7-.1-1a3 3 0 01.3-1.4l.5-.5.5-.4 1.1.5.8.6a1.9 1.9 0 01.6 1.4c0 .3 0 .6-.2.8 0 .3-.2.5-.3.7a2 2 0 01-.6.5 2 2 0 01-.8.1zm13.6.8v-3.6h-1v.6c-.2.3-.3.6-.6.8-.2.2-.5.3-.9.3h-4l1.8-1.6a79 79 0 002.6-2.6 17.6 17.6 0 001.4-1.8 3.4 3.4 0 00.3-1.6c0-.4 0-.8-.2-1.2a2.4 2.4 0 00-.7-.8 3.6 3.6 0 00-1.3-.6 6.5 6.5 0 00-1.7-.2c-.6 0-1.1 0-1.6.2l-1.2.5a2 2 0 00-.7.7l-.2.9c0 .3 0 .5.2.8 0 .2.2.3.4.5l.7.3a4 4 0 00.9 0c0-.9.1-1.6.3-2.1.3-.5.7-.8 1.2-.8s.8.2 1 .5c.3.3.4.7.4 1.4a4.8 4.8 0 01-.6 2.4c-.1.4-.4.8-.7 1.2l-1.4 1.5-2.4 2.5V64h8zm6 .2c.7 0 1.3-.1 1.7-.3a3.4 3.4 0 002-2.2 5.3 5.3 0 000-3.1 3 3 0 00-1.7-1.8 3.9 3.9 0 00-1.4-.2 5.4 5.4 0 00-1.5.2 3.6 3.6 0 00-.9.4l.2-2 .5-1.3.7-1 1-.2a.8.8 0 01.5.2l.3.5.2.7v.8l1-.1.6-.3.4-.4v-.5a1.6 1.6 0 00-.6-1.3 2.8 2.8 0 00-1-.4 5.3 5.3 0 00-3.5.3c-.6.4-1 .8-1.5 1.4-.4.6-.7 1.4-.9 2.2a11.2 11.2 0 000 5.2c.2.7.5 1.3.9 1.8.4.4.8.8 1.3 1 .5.3 1.1.4 1.7.4zm0-1.2c-.2 0-.4 0-.6-.2a2.2 2.2 0 01-.6-.8l-.4-1.5a14 14 0 01-.2-2c0-.2.2-.3.3-.4a2.8 2.8 0 011.4-.5c.5 0 .9.2 1.2.6.3.5.4 1.1.4 2 0 1-.1 1.7-.4 2.2-.2.4-.6.7-1 .7z"/></g></svg>
